<svg xmlns="http://www.w3.org/2000/svg" viewBox="0 0 64 64" width="64" height="64">
  <!-- flame -->
  <path d="M32 47c-5 0-8 4-8 9 0 3 3 6 8 6s8-3 8-6c0-5-3-9-8-9z" fill="#ff9d2f"/>
  <path d="M32 49c-3 0-5 3-5 7 0 2 2 4 5 4s5-2 5-4c0-4-2-7-5-7z" fill="#ff5722"/>
  <path d="M32 51c-1.6 0-3 2-3 4.5 0 1.4 1.3 2.5 3 2.5s3-1.1 3-2.5c0-2.5-1.4-4.5-3-4.5z" fill="#ffd54f"/>
  <!-- fins -->
  <path d="M20 34c-4 2-7 6-8 11 5-1 9-2 12-5z" fill="#e0457b"/>
  <path d="M44 34c4 2 7 6 8 11-5-1-9-2-12-5z" fill="#e0457b"/>
  <!-- body -->
  <path d="M32 4c8 6 13 16 13 27 0 6-1.6 11-4 15H23c-2.4-4-4-9-4-15C19 20 24 10 32 4z" fill="#f2f5fb"/>
  <path d="M32 4c8 6 13 16 13 27 0 6-1.6 11-4 15h-9V4z" fill="#d5deee"/>
  <!-- window -->
  <circle cx="32" cy="26" r="7" fill="#2b3a55"/>
  <circle cx="32" cy="26" r="5.4" fill="#3B82F6"/>
  <circle cx="30" cy="24" r="1.8" fill="#bfe0ff"/>
  <!-- nose tip -->
  <path d="M32 4c2.6 2 4.8 4.5 6.6 7.4-1.8-.9-4-1.4-6.6-1.4s-4.8.5-6.6 1.4C27.2 8.5 29.4 6 32 4z" fill="#e0457b"/>
</svg>
